# xmcd
#
# Track frame offsets:
#	150
#	16538
#	29513
#	39607
#	58204
#	77171
#	96123
#	109693
#	124715
#	141926
#
# Disc length: 2025 seconds
#
# Revision: 0
# Processed by: cddbd v1.5.2PL0 Copyright (c) Steve Scherf et al.
# Submitted via: EasyCDDAExtractor 10.5.1.1
#
DISCID=7f07e70a
DTITLE=Marvin Morrow - My Jesus Can
DYEAR=2005
DGENRE=Gospel
TTITLE0=My Jesus Can
TTITLE1=When You Hit Bottom
TTITLE2=Where The Flowers Never Fade
TTITLE3=How They Gonna Hear
TTITLE4=A Body Brand New
TTITLE5=Sinner, What you Gonna Do
TTITLE6=God Forever And Always
TTITLE7=The Church Moved Away
TTITLE8=I'll Not Be Dead
TTITLE9=I'M looking For The Sunrise
EXTD=
EXTT0=
EXTT1=
EXTT2=
EXTT3=
EXTT4=
EXTT5=
EXTT6=
EXTT7=
EXTT8=
EXTT9=
PLAYORDER=
